<svg xmlns="http://www.w3.org/2000/svg" width="1200" height="630" viewBox="0 0 1200 630" font-family="'Segoe UI', Roboto, Helvetica, Arial, sans-serif">
  <defs>
    <linearGradient id="bg" x1="0" y1="0" x2="1" y2="1"><stop offset="0" stop-color="#1e1e2e"/><stop offset="1" stop-color="#13131f"/></linearGradient>
    <linearGradient id="ac" x1="0" y1="0" x2="1" y2="0"><stop offset="0" stop-color="#cba6f7"/><stop offset="1" stop-color="#89b4fa"/></linearGradient>
  </defs>
  <rect width="1200" height="630" fill="url(#bg)"/>
  <g stroke="#ffffff" stroke-opacity="0.04" stroke-width="1">
    <path d="M0 80H1200M0 160H1200M0 240H1200M0 320H1200M0 400H1200M0 480H1200M0 560H1200"/>
    <path d="M120 0V630M240 0V630M360 0V630M480 0V630M600 0V630M720 0V630M840 0V630M960 0V630M1080 0V630"/>
  </g>
  <circle cx="980" cy="120" r="220" fill="#cba6f7" opacity="0.13"/>
  <circle cx="180" cy="540" r="200" fill="#89b4fa" opacity="0.10"/>
  <rect x="80" y="84" width="64" height="64" rx="14" fill="#1e1e2e" stroke="#cba6f7" stroke-width="2"/>
  <text x="112" y="130" font-size="36" font-weight="700" fill="#cba6f7" text-anchor="middle" font-family="monospace">H</text>
  <text x="168" y="128" font-size="26" font-weight="600" fill="#9aa6bd" letter-spacing="6">HAARIZZ</text>
  <text x="80" y="300" font-size="92" font-weight="800" fill="#ffffff">HARIKRISHNAN</text>
  <text x="80" y="392" font-size="92" font-weight="800" fill="url(#ac)">T NAIR</text>
  <text x="84" y="452" font-size="30" font-weight="500" fill="#aab4c8">Software Engineer · Backend &amp; Systems · GEEBU InfoTech</text>
  <text x="84" y="516" font-size="26" font-weight="600" fill="#cba6f7" font-family="monospace">// git log --career</text>
  <text x="1120" y="590" font-size="22" fill="#89b4fa" text-anchor="end" font-family="monospace">haarizz.vercel.app/build-log</text>
</svg>
