<svg xmlns="http://www.w3.org/2000/svg" width="1200" height="630" viewBox="0 0 1200 630" font-family="'Segoe UI', Roboto, Helvetica, Arial, sans-serif">
  <defs>
    <linearGradient id="bg" x1="0" y1="0" x2="1" y2="1">
      <stop offset="0" stop-color="#0a0c12"/>
      <stop offset="1" stop-color="#0d1117"/>
    </linearGradient>
    <linearGradient id="accent" x1="0" y1="0" x2="1" y2="0">
      <stop offset="0" stop-color="#3bf08a"/>
      <stop offset="1" stop-color="#56d4dd"/>
    </linearGradient>
  </defs>
  <rect width="1200" height="630" fill="url(#bg)"/>
  <!-- grid -->
  <g stroke="#ffffff" stroke-opacity="0.04" stroke-width="1">
    <path d="M0 80H1200M0 160H1200M0 240H1200M0 320H1200M0 400H1200M0 480H1200M0 560H1200"/>
    <path d="M120 0V630M240 0V630M360 0V630M480 0V630M600 0V630M720 0V630M840 0V630M960 0V630M1080 0V630"/>
  </g>
  <!-- glow -->
  <circle cx="980" cy="120" r="220" fill="#3bf08a" opacity="0.12"/>
  <circle cx="180" cy="540" r="200" fill="#56d4dd" opacity="0.10"/>
  <!-- logo chip -->
  <rect x="80" y="84" width="64" height="64" rx="14" fill="#0f1219" stroke="#3bf08a" stroke-width="2"/>
  <text x="112" y="130" font-size="38" font-weight="700" fill="#3bf08a" text-anchor="middle" font-family="monospace">&gt;_</text>
  <text x="168" y="128" font-size="26" font-weight="600" fill="#7d8da1" letter-spacing="6">HAARIZZ</text>
  <!-- main -->
  <text x="80" y="300" font-size="92" font-weight="800" fill="#ffffff">HARIKRISHNAN</text>
  <text x="80" y="392" font-size="92" font-weight="800" fill="url(#accent)">T NAIR</text>
  <text x="84" y="452" font-size="30" font-weight="500" fill="#aab4c8">Software Engineer · Backend &amp; Systems · GEEBU InfoTech</text>
  <!-- tags -->
  <g font-size="22" font-weight="600" font-family="monospace">
    <rect x="80" y="500" width="120" height="46" rx="23" fill="#0f1219" stroke="#1c2530"/><text x="140" y="530" fill="#3bf08a" text-anchor="middle">Java</text>
    <rect x="212" y="500" width="176" height="46" rx="23" fill="#0f1219" stroke="#1c2530"/><text x="300" y="530" fill="#3bf08a" text-anchor="middle">Spring Boot</text>
    <rect x="400" y="500" width="116" height="46" rx="23" fill="#0f1219" stroke="#1c2530"/><text x="458" y="530" fill="#3bf08a" text-anchor="middle">React</text>
    <rect x="528" y="500" width="196" height="46" rx="23" fill="#0f1219" stroke="#1c2530"/><text x="626" y="530" fill="#3bf08a" text-anchor="middle">PostgreSQL</text>
  </g>
  <!-- footer tag -->
  <text x="1120" y="590" font-size="22" fill="#56d4dd" text-anchor="end" font-family="monospace">haarizz.vercel.app · 5 designs</text>
</svg>
